<?xml version="1.0" encoding="utf-8"?><!-- Uploaded to: SVG Repo, www.svgrepo.com, Generator: SVG Repo Mixer Tools -->
<svg width="25px" height="25px" viewBox="0 0 1024 1024" xmlns="http://www.w3.org/2000/svg"><path fill="#000000" d="M176 416a112 112 0 1 0 0 224 112 112 0 0 0 0-224m0 64a48 48 0 1 1 0 96 48 48 0 0 1 0-96zm336-64a112 112 0 1 1 0 224 112 112 0 0 1 0-224zm0 64a48 48 0 1 0 0 96 48 48 0 0 0 0-96zm336-64a112 112 0 1 1 0 224 112 112 0 0 1 0-224zm0 64a48 48 0 1 0 0 96 48 48 0 0 0 0-96z"/></svg>